<svg  viewBox="0 -48 464 464"  xmlns="http://www.w3.org/2000/svg"><path d="m440 103.199219h16v32h-16zm0 0"/><path d="m256 351.199219h208v16h-208zm0 0"/><path d="m408 63.199219h16v48h-16zm0 0"/><path d="m360 143.199219c-16.800781 0-33.601562 4.800781-48 14.402343v17.597657c0 13.601562-10.398438 24-24 24h-9.601562c-4 10.402343-6.398438 20.800781-6.398438 32 0 48.800781 39.199219 88 88 88s88-39.199219 88-88-39.199219-88-88-88zm32 64h-16v-8c0-4.800781-3.199219-8-8-8h-16c-4.800781 0-8 3.199219-8 8v16c0 4.800781 3.199219 8 8 8h16c13.601562 0 24 10.402343 24 24v16c0 13.601562-10.398438 24-24 24v16h-16v-16c-13.601562 0-24-10.398438-24-24v-8h16v8c0 4.800781 3.199219 8 8 8h16c4.800781 0 8-3.199219 8-8v-16c0-4.800781-3.199219-8-8-8h-16c-13.601562 0-24-10.398438-24-24v-16c0-13.597657 10.398438-24 24-24v-16h16v16c13.601562 0 24 10.402343 24 24zm0 0"/><path d="m0 143.199219h64v-112h-64zm24-88h16v48h-16zm0 0"/><path d="m296 175.199219v-24c0-4.800781-3.199219-8-8-8h-41.601562c-13.597657 0-24-10.398438-24-24 0-2.398438.800781-4.800781 1.601562-7.199219l4.800781-13.601562c4-11.199219 16-18.398438 27.199219-16l65.601562 12.800781h54.398438c0-2.398438-.800781-4.800781-3.199219-6.398438l-116-87.199219c-1.601562-1.601562-4-1.601562-6.402343-1.601562l-170.398438 29.601562v116l88 36.796876c.800781.800781 2.398438.800781 3.199219.800781h116.800781c4.800781 0 8-3.199219 8-8zm0 0"/></svg>